<?xml version="1.0" standalone="no"?>
<!DOCTYPE svg PUBLIC "-//W3C//DTD SVG 20010904//EN"
 "http://www.w3.org/TR/2001/REC-SVG-20010904/DTD/svg10.dtd">
<svg version="1.0" xmlns="http://www.w3.org/2000/svg"
 width="225.000000pt" height="225.000000pt" viewBox="0 0 225.000000 225.000000"
 preserveAspectRatio="xMidYMid meet">
<metadata>
Created by potrace 1.16, written by Peter Selinger 2001-2019
</metadata>
<g transform="translate(0.000000,225.000000) scale(0.100000,-0.100000)"
fill="#000000" stroke="none">
<path d="M990 1964 c-201 -39 -352 -123 -492 -273 -198 -213 -269 -515 -189
-805 114 -414 546 -681 971 -600 383 72 665 387 695 776 17 209 -59 441 -200
612 -57 69 -182 166 -268 209 -122 60 -203 79 -357 82 -74 2 -146 1 -160 -1z
m323 -119 c243 -62 441 -251 527 -505 34 -101 39 -280 11 -390 -71 -281 -283
-492 -557 -556 -90 -21 -254 -20 -341 2 -237 58 -430 228 -525 460 -46 114
-60 286 -33 415 64 301 314 541 614 589 75 12 226 4 304 -15z"/>
<path d="M1003 1572 c-2 -11 -5 -86 -6 -168 l-2 -149 -165 -5 -165 -5 0 -125
0 -125 167 -5 167 -5 0 -159 c-1 -122 2 -161 13 -167 7 -5 61 -9 120 -9 96 0
108 2 118 19 5 11 10 86 10 170 l0 151 158 0 c110 0 162 4 170 12 15 15 16
201 2 229 -10 18 -23 19 -170 19 l-160 0 0 158 c0 110 -4 162 -12 170 -8 8
-51 12 -126 12 -102 0 -114 -2 -119 -18z"/>
</g>
</svg>
